# xmcd
#
# Track frame offsets:
#   150
#   21125
#   39502
#   56887
#   69339
#   83542
#   95073
#   109559
#   121289
#   140077
#   152878
#   177558
#   198668
#
# Disc length: 2870 seconds
#
# Revision: 0
# Processed by: cddbd v1.5.2PL0 Copyright (c) Steve Scherf et al.
# Submitted via: uFREEDB ActiveX Control 1.5
#
DISCID=b60b340d
DTITLE=Dois Missioneiros -    
DYEAR=1900
DGENRE=Country
TTITLE0=Saudade de Lá
TTITLE1=Burro Apaixonado
TTITLE2=Um pouco das minhas andanças
TTITLE3=Gaiteiro feliz
TTITLE4=Saudade Malvada
TTITLE5=Velho Rio Grande
TTITLE6=Homenagem a Luiz Gonzaga
TTITLE7=Quero Dançar contigo
TTITLE8=Cria de Taipão
TTITLE9=Encontro feliz
TTITLE10=Me dá licença Rio Grande
TTITLE11=Milonga Costeira
TTITLE12=Que pena
EXTD=
EXTT0=
EXTT1=
EXTT2=
EXTT3=
EXTT4=
EXTT5=
EXTT6=
EXTT7=
EXTT8=
EXTT9=
EXTT10=
EXTT11=
EXTT12=
PLAYORDER=
